<?xml version="1.0" encoding="utf-8"?>
<!-- Generator: Adobe Illustrator 15.1.0, SVG Export Plug-In . SVG Version: 6.00 Build 0)  -->
<!DOCTYPE svg PUBLIC "-//W3C//DTD SVG 1.1//EN" "http://www.w3.org/Graphics/SVG/1.1/DTD/svg11.dtd">
<svg version="1.1" id="Layer_1" xmlns="http://www.w3.org/2000/svg" xmlns:xlink="http://www.w3.org/1999/xlink" x="0px" y="0px"
	 width="110.489px" height="107.979px" viewBox="0 0 110.489 107.979" enable-background="new 0 0 110.489 107.979"
	 xml:space="preserve">
<g>
	
		<rect x="-915.346" y="-265.613" fill="#FFFFFF" stroke="#EAF4FC" stroke-width="1.2556" stroke-miterlimit="10" width="110.489" height="107.979"/>
	<g id="Forma_1">
		<g>
			<path fill-rule="evenodd" clip-rule="evenodd" fill="#A6D8BB" d="M-845.119-222.679c3.526,0,6.391-2.866,6.391-6.4
				c0-3.534-2.864-6.4-6.391-6.4c-3.531,0-6.398,2.867-6.398,6.4C-851.517-225.544-848.65-222.679-845.119-222.679z
				 M-874.109-222.679c3.525,0,6.391-2.866,6.391-6.4c0-3.534-2.865-6.4-6.391-6.4c-3.532,0-6.396,2.867-6.396,6.4
				C-880.504-225.544-877.641-222.679-874.109-222.679z M-838.013-206.938c-1.566-0.68-3.387,0.042-4.068,1.611
				c-2.982,6.906-10.03,11.366-17.961,11.366c-8.11,0-15.201-4.457-18.063-11.356c-0.494-1.192-1.645-1.91-2.857-1.91
				c-0.396,0-0.8,0.077-1.185,0.238c-1.581,0.655-2.327,2.467-1.67,4.046c3.823,9.218,13.156,15.175,23.774,15.175
				c10.401,0,19.679-5.925,23.642-15.099C-835.724-204.438-836.444-206.258-838.013-206.938z"/>
		</g>
	</g>
</g>
<g>
	<rect fill="#FFFFFF" stroke="#EAF4FC" stroke-width="1.2556" stroke-miterlimit="10" width="110.489" height="107.979"/>
	<g>
		<g id="Forma_1_2_">
			<g>
				<path fill-rule="evenodd" clip-rule="evenodd" fill="#F37F7F" d="M78.943,73.484c-3.963-9.171-13.241-15.098-23.638-15.098
					c-10.62,0-19.953,5.957-23.778,15.174c-0.656,1.58,0.092,3.392,1.67,4.047c0.388,0.16,0.79,0.238,1.186,0.238
					c1.213,0,2.363-0.719,2.857-1.91c2.862-6.898,9.953-11.357,18.065-11.357c7.929,0,14.978,4.461,17.959,11.365
					c0.679,1.57,2.499,2.293,4.067,1.612C78.899,76.877,79.621,75.055,78.943,73.484z"/>
			</g>
		</g>
		<g id="Forma_1_4_">
			<g>
				<path fill-rule="evenodd" clip-rule="evenodd" fill="#F37F7F" d="M41.247,30.134c-3.53,0-6.394,2.867-6.394,6.4
					c0,3.535,2.863,6.4,6.394,6.4c3.528,0,6.391-2.866,6.391-6.4C47.638,33,44.775,30.134,41.247,30.134z M70.237,30.134
					c-3.531,0-6.396,2.867-6.396,6.4c0,3.535,2.865,6.4,6.396,6.4c3.529,0,6.393-2.866,6.393-6.4
					C76.63,33,73.766,30.134,70.237,30.134z"/>
			</g>
		</g>
	</g>
</g>
</svg>
