<?xml version="1.0" encoding="utf-8"?>
<!-- Generator: Adobe Illustrator 15.1.0, SVG Export Plug-In . SVG Version: 6.00 Build 0)  -->
<!DOCTYPE svg PUBLIC "-//W3C//DTD SVG 1.1//EN" "http://www.w3.org/Graphics/SVG/1.1/DTD/svg11.dtd">
<svg version="1.1" id="Layer_1" xmlns="http://www.w3.org/2000/svg" xmlns:xlink="http://www.w3.org/1999/xlink" x="0px" y="0px"
	 width="110.489px" height="107.979px" viewBox="0 0 110.489 107.979" enable-background="new 0 0 110.489 107.979"
	 xml:space="preserve">
<g>
	
		<rect x="0" y="0" fill="#FFFFFF" stroke="#EAF4FC" stroke-width="1.2556" stroke-miterlimit="10" width="110.49" height="107.979"/>
	<g id="Forma_1">
		<g>
			<path fill-rule="evenodd" clip-rule="evenodd" fill="#A6D8BB" d="M70.228,42.934c3.525,0,6.391-2.866,6.391-6.4
				c0-3.534-2.865-6.4-6.391-6.4c-3.531,0-6.398,2.867-6.398,6.4C63.829,40.068,66.696,42.934,70.228,42.934z M41.237,42.934
				c3.525,0,6.391-2.866,6.391-6.4c0-3.534-2.865-6.4-6.391-6.4c-3.533,0-6.396,2.867-6.396,6.4
				C34.841,40.068,37.704,42.934,41.237,42.934z M77.333,58.675c-1.566-0.68-3.387,0.041-4.068,1.611
				c-2.982,6.905-10.031,11.366-17.961,11.366c-8.111,0-15.201-4.457-18.063-11.356c-0.494-1.192-1.645-1.91-2.857-1.91
				c-0.396,0-0.801,0.076-1.186,0.237c-1.58,0.655-2.326,2.468-1.67,4.046c3.824,9.219,13.156,15.176,23.775,15.176
				c10.4,0,19.678-5.926,23.641-15.1C79.622,61.176,78.901,59.355,77.333,58.675z"/>
		</g>
	</g>
</g>
<g>
	
		<rect x="-288.677" y="279.433" fill="#FFFFFF" stroke="#EAF4FC" stroke-width="1.2556" stroke-miterlimit="10" width="110.489" height="107.979"/>
	<g>
		<g id="Forma_1_2_">
			<g>
				<path fill-rule="evenodd" clip-rule="evenodd" fill="#F37F7F" d="M-209.733,352.917c-3.963-9.171-13.241-15.099-23.638-15.099
					c-10.62,0-19.953,5.957-23.778,15.175c-0.656,1.58,0.092,3.392,1.67,4.047c0.388,0.16,0.79,0.238,1.186,0.238
					c1.213,0,2.363-0.719,2.857-1.91c2.862-6.898,9.953-11.357,18.065-11.357c7.929,0,14.978,4.461,17.959,11.365
					c0.679,1.57,2.499,2.293,4.067,1.612C-209.777,356.31-209.056,354.487-209.733,352.917z"/>
			</g>
		</g>
		<g id="Forma_1_4_">
			<g>
				<path fill-rule="evenodd" clip-rule="evenodd" fill="#F37F7F" d="M-247.43,309.566c-3.53,0-6.394,2.867-6.394,6.4
					c0,3.535,2.863,6.4,6.394,6.4c3.528,0,6.391-2.865,6.391-6.4C-241.039,312.434-243.901,309.566-247.43,309.566z
					 M-218.439,309.566c-3.531,0-6.396,2.867-6.396,6.4c0,3.535,2.865,6.4,6.396,6.4c3.529,0,6.393-2.865,6.393-6.4
					C-212.047,312.434-214.911,309.566-218.439,309.566z"/>
			</g>
		</g>
	</g>
</g>
</svg>
