<?xml version="1.0" encoding="utf-8"?>
<!-- Generator: Adobe Illustrator 15.1.0, SVG Export Plug-In . SVG Version: 6.00 Build 0)  -->
<!DOCTYPE svg PUBLIC "-//W3C//DTD SVG 1.1//EN" "http://www.w3.org/Graphics/SVG/1.1/DTD/svg11.dtd">
<svg version="1.1" id="Layer_1" xmlns="http://www.w3.org/2000/svg" xmlns:xlink="http://www.w3.org/1999/xlink" x="0px" y="0px"
	 width="326px" height="107.979px" viewBox="0 0 326 107.979" enable-background="new 0 0 326 107.979" xml:space="preserve">
<g>
	<g id="Forma_1_1_">
		<g>
			<path fill-rule="evenodd" clip-rule="evenodd" fill="#003041" d="M42.624,45.385c3.449-0.747,6.066-2.533,7.978-4.9
				c0.707,0.248,1.413,0.498,2.161,0.58c0.457,0.043,0.541-0.58,0.208-0.789c-0.499-0.29-1.081-0.539-1.662-0.789
				c0.582-0.914,1.081-1.869,1.496-2.908c0.873,0.084,1.745,0.167,2.618,0.291c0.498,0.083,0.498-0.623,0.125-0.789
				c-0.748-0.291-1.538-0.457-2.369-0.54c0.208-0.665,0.374-1.371,0.499-2.077c0.79,0,1.538,0,2.327-0.083
				c0.623-0.041,0.623-0.914,0-0.997c-0.707-0.041-1.455-0.041-2.161,0c0.79-5.565-0.665-11.798-4.321-16.657
				c0.083-0.291-0.25-0.541-0.499-0.375c-0.416-0.082-0.873,0.291-0.748,0.79c-1.288,1.661-1.787,3.573-1.911,5.69
				c-4.072-1.951-10.471-1.578-14.626,0.25c-0.166-0.665-0.582-1.33-0.831-1.828c-0.415-0.873-1.288-1.994-1.288-2.99
				c0-0.79-1.246-0.832-1.246-0.042c-3.989,4.776-5.402,11.423-4.155,17.114c-0.665,0-1.33,0.043-1.953,0.167
				c-0.457,0.125-0.457,0.831,0,0.955c0.707,0.166,1.496,0.166,2.286,0.083c0.249,0.831,0.582,1.62,0.956,2.409
				c-0.499,0.166-0.997,0.291-1.455,0.457c-0.457,0.166-0.415,0.955,0.125,0.914c0.582-0.041,1.205-0.166,1.829-0.373
				c0.291,0.498,0.624,0.955,0.956,1.412c-0.79,0.623-1.496,1.37-2.036,2.118c-0.291,0.415,0.291,0.956,0.665,0.665
				c0.748-0.541,1.371-1.246,2.036-1.911l0.042-0.042c1.579,1.745,3.615,3.116,6.149,3.863c0.79,8.143-4.113,14-8.393,20.148
				c-13.379-4.985-14.501-18.943-4.321-28.249c0.166-0.166,0.291-0.498,0.166-0.706c-1.413-3.405-3.864-3.364-7.022-1.911
				c-4.778,2.243-6.606,8.351-7.146,13.169c-0.998,8.848,4.279,23.346,14.833,23.388c-1.247,2.492-2.161,5.11-2.368,8.018
				c-0.665,8.848,8.85,12.753,15.997,13.626c9.141,1.079,19.03-3.906,22.229-12.588C62.277,67.9,43.995,56.727,42.624,45.385z
				 M28.704,40.317c0.54-0.415,1.081-0.831,1.621-1.204c0.374-0.25,0.042-0.748-0.333-0.582c-0.623,0.249-1.247,0.623-1.87,0.997
				c-0.25-0.374-0.457-0.706-0.665-1.122c0.581-0.249,1.163-0.54,1.703-0.83c0.333-0.208,0.125-0.707-0.249-0.624
				c-0.624,0.125-1.247,0.333-1.912,0.499c-0.291-0.706-0.582-1.453-0.748-2.243c0.872-0.166,1.745-0.374,2.535-0.581
				c0.374-0.084,0.291-0.707-0.083-0.707c-0.914,0.042-1.787,0.124-2.701,0.208c-1.081-5.193,0.083-11.507,2.576-15.91
				c0.208,0.623,0.54,1.246,0.831,1.786c0.291,0.624,0.623,1.246,0.914,1.827c0.125,0.25,0.208,0.498,0.333,0.748
				c-0.125,0.084-0.25,0.125-0.374,0.208c-0.333,0.208-0.125,0.665,0.25,0.623c5.983-1.288,10.844-1.038,16.703,0.249
				c0.665,0.166,0.956-0.581,0.582-0.996c0-0.042,0.042-0.125,0.042-0.166c0.042-1.703,0.291-3.573,0.956-5.234
				c2.41,4.984,3.823,10.51,3.324,15.287c-0.706,0.082-1.454,0.166-2.161,0.291c-0.457,0.082-0.374,0.913,0.125,0.83
				c0.665-0.083,1.288-0.125,1.953-0.125c-0.125,0.707-0.291,1.371-0.499,1.994c-0.831,0.042-1.662,0.167-2.451,0.29
				c-0.416,0.084-0.333,0.79,0.083,0.748c0.665-0.041,1.33-0.082,1.953-0.041c-0.375,0.914-0.831,1.745-1.455,2.533
				c-0.79-0.166-1.579-0.29-2.327-0.29c-0.541,0-0.499,0.748,0,0.79c0.54,0.041,1.081,0.166,1.579,0.332
				c-2.16,2.285-5.567,3.863-10.429,4.236C33.939,44.43,30.74,42.893,28.704,40.317z M8.719,50.495
				c-0.375-4.362,1.246-10.302,4.321-13.418c1.704-1.744,7.687-1.869,4.654,1.205c-1.163,1.163-2.077,2.575-2.95,3.987
				c-6.315,10.095-0.083,20.48,9.723,24.426c-0.706,1.081-1.413,2.16-2.036,3.324c-0.042-0.041-0.125-0.084-0.208-0.084
				C13.538,68.398,9.383,58.388,8.719,50.495z M53.053,84.891c-4.114,4.818-11.551,6.189-17.493,6.023s-12.008-3.24-13.961-9.098
				c-1.995-5.981,2.826-12.004,6.066-16.492c4.28-5.98,8.642-12.379,7.229-19.98c0.707,0.166,1.496,0.291,2.286,0.332
				c1.33,0.125,2.576,0.084,3.781-0.041c0.291,7.354,5.609,12.961,9.931,18.568C55.629,70.352,58.87,78.037,53.053,84.891z
				 M36.35,29.808c-0.831-0.54-1.828-0.706-2.784-0.955c-1.205-0.332-2.368-0.707-3.615-0.914c-0.374-0.084-0.624,0.207-0.624,0.498
				c-0.041-0.082-0.083-0.166-0.166-0.249c-0.125-0.167-0.374-0.124-0.499,0c-1.621,1.661,0.998,4.112,2.493,4.528
				c2.078,0.581,4.404-0.54,5.526-2.285C36.931,30.099,36.641,29.808,36.35,29.808z M31.82,31.386
				c-0.79-0.125-1.454-0.581-1.87-1.246c-0.291-0.416-0.291-0.914-0.457-1.371c0.042,0.042,0.125,0.084,0.208,0.125
				c0.998,0.415,2.078,0.706,3.117,0.996c0.831,0.25,1.662,0.582,2.535,0.707C34.355,31.345,33.108,31.636,31.82,31.386z
				 M41.834,31.802c3.49,2.201,7.438,0.083,8.186-3.822c0.083-0.332-0.125-0.54-0.374-0.664c0.083-0.332-0.249-0.623-0.582-0.582
				c-0.955,0.166-1.828,0.914-2.659,1.371c-0.956,0.539-1.953,0.955-2.992,1.246c-0.25,0.083-0.333,0.249-0.374,0.498
				c-0.416,0.25-0.831,0.499-1.288,0.707c-0.416,0.207-0.374,0.623-0.125,0.914C41.626,31.593,41.709,31.718,41.834,31.802z
				 M43.953,30.39c0.956-0.166,1.828-0.5,2.743-0.914c0.665-0.333,1.413-0.665,2.077-1.121c-0.873,2.574-3.282,3.904-5.858,2.906
				C43.289,31.013,43.621,30.722,43.953,30.39z"/>
		</g>
	</g>
	<text transform="matrix(1 0 0 1 88.812 78.0176)"><tspan x="0" y="0" fill="#F5F6F7" font-family="'Cartoon'" font-size="75.8505" letter-spacing="3">tw</tspan><tspan x="116.05" y="0" fill="#003041" font-family="'Cartoon'" font-size="75.8505" letter-spacing="3">app</tspan></text>
</g>
</svg>
